Coordinates
version=1
nRows=8
nColumns=40
inDegrees=yes

Units are S.I. units (second, meters, Newtons, ...)
If the header above contains a line with 'inDegrees', this indicates whether rotational values are in degrees (yes) or radians (no).

endheader
time	pelvis_tilt	pelvis_list	pelvis_rotation	pelvis_tx	pelvis_ty	pelvis_tz	hip_flexion_r	hip_adduction_r	hip_rotation_r	knee_angle_r	knee_angle_r_beta	ankle_angle_r	subtalar_angle_r	mtp_angle_r	hip_flexion_l	hip_adduction_l	hip_rotation_l	knee_angle_l	knee_angle_l_beta	ankle_angle_l	subtalar_angle_l	mtp_angle_l	lumbar_extension	lumbar_bending	lumbar_rotation	arm_flex_r	arm_add_r	arm_rot_r	elbow_flex_r	pro_sup_r	wrist_flex_r	wrist_dev_r	arm_flex_l	arm_add_l	arm_rot_l	elbow_flex_l	pro_sup_l	wrist_flex_l	wrist_dev_l
      0.38000000	     14.53843931	      5.01542094	     -7.70638955	      0.18855373	      0.97887027	     -0.24542127	      7.77047931	     -8.18943838	      2.15529399	     51.15347318	      0.89279653	      6.56518213	      0.00000000	      0.00000000	    -15.84137798	     10.18424736	     -6.80033008	      8.52150929	      0.14872839	     11.11487839	      0.00000000	      0.00000000	    -30.29519273	     -7.51329470	      2.44859981	      1.56577373	     -2.47482365	     -4.11817375	     39.90157555	     89.41947942	    -14.05664216	      4.26250885	     12.36926151	     -3.06540231	     12.26601902	     34.73259260	     89.49337336	    -24.68538111	     -1.05300194
      0.39000000	     14.81381015	      4.35018324	     -6.82315499	      0.19964106	      0.97936333	     -0.24716179	      7.60935064	     -7.53844110	      0.69606506	     48.16424008	      0.84062457	      6.71118129	      0.00000000	      0.00000000	    -17.35994248	      9.46364098	     -5.94546436	      7.79002153	      0.13596152	     11.46717262	      0.00000000	      0.00000000	    -30.80727079	     -6.31198895	      1.89900115	      1.11627503	     -2.43872867	     -4.98010743	     39.75410883	     89.42512900	    -14.19909679	      4.01748346	     12.78000090	     -3.05793928	     11.79336735	     36.48622315	     89.49748439	    -24.17172710	     -0.88838991
      0.40000000	     14.67986880	      4.17892914	     -6.42066070	      0.21069250	      0.97869623	     -0.24809736	      8.16154716	     -7.28478873	     -0.14473048	     45.29394475	      0.79052847	      6.89980934	      0.00000000	      0.00000000	    -18.29165311	      9.30074721	     -5.53495224	      7.15692645	      0.12491193	     11.66873511	      0.00000000	      0.00000000	    -30.70703146	     -5.84362211	      1.71492814	      0.58677045	     -2.41172441	     -5.56074717	     39.47074227	     89.42352746	    -14.31296595	      3.99567982	     13.22007457	     -3.07069645	     11.54162137	     38.08287654	     89.49754600	    -23.70745011	     -0.79396071
      0.41000000	     14.58555438	      4.03193394	     -6.02549288	      0.22182440	      0.97792245	     -0.24897838	      8.57098142	     -7.07342071	     -1.06771842	     42.21901970	      0.73686090	      7.03185019	      0.00000000	      0.00000000	    -19.26130312	      9.15833614	     -5.22264293	      6.54099782	      0.11416195	     11.90817007	      0.00000000	      0.00000000	    -30.64031309	     -5.38904825	      1.52996421	      0.04357305	     -2.37556230	     -6.18971285	     39.24887297	     89.42211783	    -14.40421090	      3.93742896	     13.66068366	     -3.10263057	     11.43356598	     39.64621237	     89.49896620	    -23.33062761	     -0.80233150
      0.42000000	     14.11016126	      4.30860986	     -6.09417191	      0.23270236	      0.97612441	     -0.24915656	      9.66627369	     -7.19324286	     -1.46124693	     39.32971089	      0.68643295	      7.14317519	      0.00000000	      0.00000000	    -19.66528761	      9.54926610	     -5.28200008	      6.06129240	      0.10578951	     12.15768883	      0.00000000	      0.00000000	    -30.07506130	     -5.59032620	      1.69004079	     -0.52014883	     -2.35792446	     -6.58828455	     38.88911893	     89.41517254	    -14.50932672	      3.99426437	     14.15228103	     -3.16645683	     11.62349113	     41.06642787	     89.49988813	    -23.27065457	     -1.03071327
      0.43000000	     13.67416797	      4.51926425	     -6.10008851	      0.24374386	      0.97424644	     -0.24919636	     10.56345373	     -7.21119542	     -1.97027106	     36.20494921	      0.63189557	      7.29742853	      0.00000000	      0.00000000	    -20.14741137	      9.84317758	     -5.30712277	      5.55510480	      0.09695487	     12.38692003	      0.00000000	      0.00000000	    -29.55969544	     -5.70397972	      1.81588267	     -1.08630873	     -2.28174567	     -7.11388786	     38.55805790	     89.40451410	    -14.63152454	      4.01634098	     14.57418778	     -3.27160150	     11.81966819	     42.58360430	     89.49311195	    -23.19195951	     -1.27595070
      0.44000000	     14.38665245	      3.63403542	     -4.82776302	      0.25539928	      0.97477216	     -0.25071293	      9.15991259	     -6.36909079	     -4.37696868	     31.93103438	      0.55730168	      7.01211755	      0.00000000	      0.00000000	    -22.18729944	      8.65646559	     -4.40625756	      4.85124644	      0.08467022	     12.53706427	      0.00000000	      0.00000000	    -30.49393970	     -4.19814920	      1.17548313	     -1.59147793	     -2.19581982	     -8.02932911	     38.46928852	     89.42252463	    -14.62930505	      3.82688445	     14.94905618	     -3.28370508	     11.64132231	     44.37919646	     89.49647950	    -22.51500695	     -1.22767372
      0.45000000	     14.25564820	      3.57662820	     -4.51171917	      0.26659427	      0.97327402	     -0.25080874	      9.34305318	     -6.06765135	     -5.26398892	     28.35095219	      0.49481746	      6.81581439	      0.00000000	      0.00000000	    -23.02373642	      8.54163475	     -4.27084992	      4.40873892	      0.07694701	     12.77843967	      0.00000000	      0.00000000	    -30.37089628	     -3.94193077	      1.13407208	     -2.12224428	     -2.08395304	     -8.62836278	     38.20106546	     89.42436349	    -14.69217397	      3.85835792	     15.32951072	     -3.38409847	     11.73855279	     46.00841370	     89.49615085	    -22.15304230	     -1.33225906
